<?xml version="1.0" standalone="no"?>
<!DOCTYPE svg PUBLIC "-//W3C//DTD SVG 20010904//EN"
 "http://www.w3.org/TR/2001/REC-SVG-20010904/DTD/svg10.dtd">
<svg version="1.0" xmlns="http://www.w3.org/2000/svg"
 width="512.000000pt" height="512.000000pt" viewBox="0 0 512.000000 512.000000"
 preserveAspectRatio="xMidYMid meet">
<metadata>
Created by potrace 1.11, written by Peter Selinger 2001-2013
</metadata>
<g transform="translate(0.000000,512.000000) scale(0.100000,-0.100000)"
fill="#000000" stroke="none">
<path d="M2419 4886 c-2 -2 -38 -7 -79 -10 -72 -5 -243 -30 -285 -41 -11 -2
-49 -12 -85 -20 -36 -8 -72 -17 -81 -19 -54 -14 -245 -83 -318 -116 -318 -143
-558 -315 -790 -565 -521 -561 -714 -1330 -520 -2070 175 -668 676 -1235 1339
-1517 117 -50 279 -104 370 -123 8 -2 49 -11 90 -20 287 -62 633 -66 965 -10
37 6 121 26 210 50 487 132 952 447 1255 850 79 105 240 366 240 389 0 3 13
33 29 68 59 130 123 343 147 488 26 162 32 228 31 390 0 356 -65 642 -216 955
-114 237 -242 417 -431 605 -176 177 -253 239 -455 365 -152 96 -442 221 -600
261 -19 5 -150 36 -170 40 -24 6 -190 32 -248 39 -52 7 -393 16 -398 11z m326
-380 c328 -27 672 -146 952 -332 154 -102 332 -264 438 -399 22 -27 43 -52 46
-55 15 -14 122 -186 161 -260 39 -74 116 -252 122 -284 2 -6 9 -31 16 -56 46
-153 70 -330 70 -510 0 -106 -12 -249 -25 -310 -3 -14 -8 -41 -11 -60 -3 -19
-15 -66 -26 -105 -10 -38 -21 -77 -23 -86 -11 -52 -101 -252 -159 -356 -139
-249 -364 -485 -631 -661 -78 -52 -293 -162 -365 -187 -3 -1 -13 -5 -22 -8
-56 -22 -48 -19 -143 -48 -38 -11 -79 -23 -90 -25 -11 -2 -42 -8 -70 -14 -27
-6 -61 -13 -75 -15 -137 -28 -558 -28 -690 0 -14 3 -47 9 -75 15 -44 8 -78 16
-110 24 -149 38 -360 127 -520 219 -223 128 -500 391 -631 597 -77 122 -167
305 -207 420 -32 93 -74 261 -84 343 -10 79 -10 444 0 520 14 104 76 328 122
437 130 307 354 597 604 783 31 23 58 44 61 47 11 12 169 109 220 135 82 43
81 42 140 68 110 49 281 103 425 133 56 12 160 25 245 30 52 3 96 7 98 9 3 3
156 -3 237 -9z"/>
<path d="M2757 4153 c10 -16 20 -30 23 -33 15 -14 40 -85 50 -140 19 -103 -5
-215 -63 -300 -77 -112 -181 -196 -389 -314 -64 -36 -132 -76 -150 -88 -193
-132 -328 -289 -437 -508 -70 -141 -108 -310 -109 -483 -1 -104 -2 -112 -21
-115 -30 -5 -102 93 -151 205 -23 52 -43 104 -46 116 -16 82 -27 144 -28 157
-1 9 -6 21 -10 28 -16 27 -33 -9 -40 -85 -3 -43 -9 -105 -11 -138 -3 -33 -8
-66 -10 -73 -6 -17 -7 -339 -1 -372 3 -14 7 -47 10 -75 12 -113 37 -205 81
-300 33 -70 104 -194 122 -213 7 -7 20 -26 30 -42 30 -52 196 -204 283 -261
111 -72 238 -134 300 -145 22 -5 134 -28 185 -40 29 -6 107 -14 205 -21 74 -5
115 -1 219 21 101 22 315 98 391 140 128 70 298 219 370 326 8 12 21 28 28 36
27 29 132 243 148 304 18 68 24 230 12 310 -6 40 -25 139 -32 165 -34 131 -87
286 -97 283 -6 -2 -12 -39 -14 -83 -4 -91 -6 -103 -24 -164 -13 -46 -56 -121
-69 -121 -4 0 -17 39 -29 86 -28 106 -66 193 -115 264 -40 57 -168 192 -224
237 -66 52 -104 125 -123 233 -8 50 -7 222 2 310 4 41 10 163 12 270 4 192 -1
235 -39 345 -19 58 -107 202 -151 248 -53 56 -119 78 -88 30z"/>
</g>
</svg>
